# xmcd CD database file
#
# Track frame offsets:
#	150
#	25100
#	55353
#	70895
#	94633
#	119778
#	136793
#	163153
#	184183
#	206073
#	222325
#	241843
#	268245
#	302870
#	331375
#
# Disc length: 4739 seconds
#
# Revision: 0
# Processed by: cddbd v1.4PL0 Copyright (c) Steve Scherf et al.
# Submitted via: CDex 1.50
#
DISCID=e612810f
DTITLE=TANIA MARIA - FREE SOUL. the classic of TANIA MARIA
DYEAR=1900
DGENRE=Jazz
TTITLE0=COME WITH ME
TTITLE1=TRANQUILTY
TTITLE2=TRISTE
TTITLE3=IMAGIN
TTITLE4=VEM P'RA RODA
TTITLE5=BELA BE BELA
TTITLE6=EUZINHA
TTITLE7=TA TUDO CERTO
TTITLE8=I CAN DO IT
TTITLE9=LEMON CUICA
TTITLE10=YATRA-TA
TTITLE11=SUPER HAPPY
TTITLE12=2 A.M
TTITLE13=SEMENTES,GRAINES and SEEDS
TTITLE14=COME WITH ME (LIVE)
EXTD=
EXTT0=
EXTT1=
EXTT2=
EXTT3=
EXTT4=
EXTT5=
EXTT6=
EXTT7=
EXTT8=
EXTT9=
EXTT10=
EXTT11=
EXTT12=
EXTT13=
EXTT14=
PLAYORDER=
